<?xml version="1.0" encoding="UTF-8" standalone="no"?>
<!-- Created with Inkscape (http://www.inkscape.org/) -->
<svg
   xmlns:dc="http://purl.org/dc/elements/1.1/"
   xmlns:cc="http://web.resource.org/cc/"
   xmlns:rdf="http://www.w3.org/1999/02/22-rdf-syntax-ns#"
   xmlns:svg="http://www.w3.org/2000/svg"
   xmlns="http://www.w3.org/2000/svg"
   xmlns:sodipodi="http://inkscape.sourceforge.net/DTD/sodipodi-0.dtd"
   xmlns:inkscape="http://www.inkscape.org/namespaces/inkscape"
   sodipodi:docbase="/home/zahod"
   sodipodi:docname="wmii9.svg"
   inkscape:version="0.41"
   sodipodi:version="0.32"
   version="1.0"
   x="0.0000000"
   y="0.0000000"
   width="240.00000px"
   height="120.00000px"
   id="svg2">
  <metadata
     id="metadata1296">
    <rdf:RDF
       id="RDF1298">
      <cc:Work
         id="Work1300"
         rdf:about="">
        <dc:format
           id="format1302">image/svg+xml</dc:format>
        <dc:type
           rdf:resource="http://purl.org/dc/dcmitype/StillImage"
           id="type1304" />
      </cc:Work>
    </rdf:RDF>
  </metadata>
  <sodipodi:namedview
     inkscape:current-layer="svg2"
     inkscape:window-y="0"
     inkscape:window-x="0"
     inkscape:cy="50.733714"
     inkscape:cx="133.35719"
     inkscape:zoom="1.6877337"
     inkscape:window-height="538"
     inkscape:window-width="640"
     inkscape:pageshadow="2"
     inkscape:pageopacity="0.0"
     borderopacity="1.0"
     bordercolor="#666666"
     pagecolor="#ffffff"
     id="base" />
  <defs
     id="defs3" />
  <g
     transform="translate(0.000000,-932.3622)"
     id="layer1">
    <path
       d="M 0.0000000,971.36227 L 26.999997,971.36227 L 26.999997,1025.3623 L 54.000004,1025.3623 L 54.000004,971.28555 L 81.310128,971.28555 L 81.310128,1025.3623 L 108.00001,1025.3623 L 108.00001,971.36227 L 240.00000,971.36227 L 240.00000,1052.3622 L 213.00001,1052.3622 L 213.00001,998.36218 L 186.00001,998.36218 L 186.00001,1052.3622 L 159.00001,1052.3622 L 159.00001,998.46222 L 132.01646,998.46222 L 132.01646,1052.3622 L 0.0000000,1052.3622 L 0.0000000,971.36227 z M 159.00001,932.36216 L 186.00001,932.36216 L 186.00001,959.36220 L 159.00001,959.36220 L 159.00001,932.36216 z M 213.00001,932.36216 L 240.00000,932.36216 L 240.00000,959.36220 L 213.00001,959.36220 L 213.00001,932.36216 z "
       style="fill:#010101"
       id="path1366" />
  </g>
</svg>
